<?xml version="1.0" encoding="UTF-8"?>
<svg xmlns="http://www.w3.org/2000/svg" width="149" height="43" viewBox="0 0 149 43" fill="none">
  <path d="M38.2211 33.7452C35.8528 32.5184 33.9997 30.8204 32.6619 28.6514C31.3241 26.4823 30.6502 24.0286 30.6502 21.2903C30.6502 18.552 31.3241 16.1081 32.6619 13.9292C33.9997 11.7602 35.8528 10.0622 38.2211 8.83537C40.5895 7.60853 43.2552 7.00002 46.2281 7.00002C49.2009 7.00002 51.8666 7.60853 54.235 8.83537C56.6034 10.0622 58.4565 11.7602 59.7942 13.9292C61.132 16.0983 61.8059 18.552 61.8059 21.2903C61.8059 24.0286 61.132 26.4823 59.7942 28.6514C58.4565 30.8302 56.6034 32.5282 54.235 33.7452C51.8666 34.9721 49.2009 35.5806 46.2281 35.5806C43.2552 35.5806 40.5895 34.9721 38.2211 33.7452ZM49.3595 27.2871C50.291 26.7277 51.0342 25.9327 51.5891 24.9021C52.1441 23.8716 52.4116 22.6742 52.4116 21.2903C52.4116 19.9064 52.1342 18.709 51.5891 17.6785C51.0342 16.6479 50.291 15.8529 49.3595 15.2935C48.428 14.734 47.3776 14.4494 46.2281 14.4494C45.0786 14.4494 44.0281 14.734 43.0966 15.2935C42.1651 15.8529 41.4219 16.6479 40.867 17.6785C40.3121 18.709 40.0346 19.9064 40.0346 21.2903C40.0346 22.6742 40.3121 23.8716 40.867 24.9021C41.4219 25.9327 42.1651 26.7277 43.0966 27.2871C44.0281 27.8466 45.0686 28.1312 46.2281 28.1312C47.3875 28.1312 48.428 27.8564 49.3595 27.2871Z" fill="#231F20"></path>
  <path d="M77.0078 28.0821H74.4809V34.9525H65.1758V7.62817H78.4645C81.0113 7.62817 83.231 8.04039 85.1237 8.87465C87.0164 9.7089 88.4731 10.9063 89.5037 12.4668C90.5244 14.0274 91.0397 15.8529 91.0397 17.9337C91.0397 19.8868 90.5938 21.5946 89.7019 23.0472C88.8101 24.5096 87.5218 25.6677 85.8372 26.5216L91.6343 34.9525H81.695L77.0078 28.0821ZM80.714 15.5683C80.0797 15.0089 79.1383 14.7242 77.8798 14.7242H74.4908V21.1235H77.8798C79.1383 21.1235 80.0897 20.8486 80.714 20.2794C81.3482 19.72 81.6554 18.9348 81.6554 17.914C81.6554 16.8933 81.3383 16.1081 80.714 15.5487V15.5683Z" fill="#231F20"></path>
  <path d="M117.497 28.0036V34.9623H94.5566V7.62817H116.982V14.577H103.703V17.7766H115.367V24.4114H103.703V28.0036H117.497Z" fill="#231F20"></path>
  <path d="M138.357 34.9622L133.581 27.66L128.933 34.9622H118.33L128.299 21.1725L118.687 7.62811H129.131L133.819 14.4984L138.397 7.62811H148.406L138.823 20.8191L149 34.9622H138.357Z" fill="#231F20"></path>
  <path d="M28.3704 8V17.7103L25.6888 15.068H25.5052L12.6969 27.8796L9.78582 25.1061V35H1V31.0693L21.3025 10.8652V10.6816L18.6602 8H28.3704Z" fill="#EE2824"></path>
  <path d="M9.78582 8.0918V16.7366L1 25.4766V8.0918H9.78582Z" fill="#231F20"></path>
  <path d="M31.1439 35H19.8174L16.9981 32.1807L22.6826 26.5813L31.1439 35Z" fill="#231F20"></path>
  <path d="M25.5314 14.8713L12.6969 27.8795L9.78582 25.1061V35H19.8174L16.9981 32.1807L30.1866 19.3396L25.5314 14.8713Z" fill="url(#paint0_linear_6_53)"></path>
  <defs>
    <linearGradient id="paint0_linear_6_53" x1="9.8186" y1="35.0328" x2="27.8492" y2="17.0055" gradientUnits="userSpaceOnUse">
      <stop offset="0.15" stop-color="#05477F"></stop>
      <stop offset="0.96" stop-color="white"></stop>
    </linearGradient>
  </defs>
</svg>
